<svg width="18" height="17" viewBox="0 0 18 17" fill="none" xmlns="http://www.w3.org/2000/svg">
<path fill-rule="evenodd" clip-rule="evenodd" d="M10.5735 1.2786C11.3326 1.58223 11.937 2.21598 12.5548 3.10369C13.171 3.98921 13.8561 5.2126 14.7418 6.79433L14.7734 6.85075C15.6245 8.37043 16.2834 9.54711 16.7016 10.5013C17.1213 11.4593 17.3399 12.2806 17.2151 13.0704C17.0485 14.1246 16.4902 15.077 15.6519 15.7374C15.0237 16.2322 14.2004 16.4428 13.1594 16.5446C12.1226 16.646 10.774 16.646 9.03219 16.646H8.96779C7.22607 16.646 5.87743 16.646 4.84066 16.5446C3.79962 16.4428 2.97628 16.2322 2.34814 15.7374C1.50977 15.077 0.951498 14.1246 0.784927 13.0704C0.660127 12.2806 0.878671 11.4593 1.2985 10.5013C1.71659 9.54711 2.37555 8.37043 3.22656 6.85078L3.25821 6.79427C4.14397 5.21254 4.82903 3.9892 5.44528 3.10369C6.06305 2.21598 6.66742 1.58223 7.42651 1.2786C8.43659 0.87458 9.56339 0.87458 10.5735 1.2786ZM9.55263 6.51431C9.55263 6.2091 9.30519 5.96167 8.99999 5.96167C8.69479 5.96167 8.44735 6.2091 8.44735 6.51431V9.46171C8.44735 9.76691 8.69479 10.0143 8.99999 10.0143C9.30519 10.0143 9.55263 9.76691 9.55263 9.46171V6.51431ZM9.73684 11.6723C9.73684 11.2653 9.40695 10.9354 8.99999 10.9354C8.59303 10.9354 8.26314 11.2653 8.26314 11.6723C8.26314 12.0792 8.59303 12.4091 8.99999 12.4091C9.40695 12.4091 9.73684 12.0792 9.73684 11.6723Z" fill="#FF6464"/>
</svg>
